<svg xmlns="http://www.w3.org/2000/svg" xmlns:xlink="http://www.w3.org/1999/xlink" width="1024" zoomAndPan="magnify" viewBox="0 0 768 767.999994" height="1024" preserveAspectRatio="xMidYMid meet" version="1.0"><rect x="-76.8" width="921.6" fill="#ffffff" y="-76.799999" height="921.599993" fill-opacity="1"/><rect x="-76.8" width="921.6" fill="#ffffff" y="-76.799999" height="921.599993" fill-opacity="1"/><path fill="#bd0a0a" d="M 635.066406 588.894531 C 597.898438 524.636719 540.621094 478.5625 473.777344 456.71875 C 476.507812 455.09375 479.195312 453.394531 481.835938 451.621094 C 484.472656 449.851562 487.0625 448.007812 489.601562 446.097656 C 492.140625 444.183594 494.628906 442.203125 497.058594 440.15625 C 499.492188 438.109375 501.867188 435.996094 504.183594 433.820312 C 506.5 431.644531 508.757812 429.40625 510.953125 427.109375 C 513.148438 424.808594 515.28125 422.453125 517.347656 420.039062 C 519.417969 417.625 521.417969 415.15625 523.351562 412.632812 C 525.285156 410.109375 527.148438 407.535156 528.945312 404.910156 C 530.738281 402.289062 532.460938 399.617188 534.109375 396.898438 C 535.757812 394.179688 537.332031 391.421875 538.832031 388.617188 C 540.332031 385.8125 541.753906 382.972656 543.101562 380.09375 C 544.445312 377.210938 545.710938 374.296875 546.898438 371.347656 C 548.085938 368.398438 549.191406 365.421875 550.21875 362.410156 C 551.242188 359.402344 552.183594 356.367188 553.046875 353.308594 C 553.90625 350.246094 554.683594 347.164062 555.378906 344.0625 C 556.070312 340.960938 556.679688 337.839844 557.203125 334.707031 C 557.726562 331.570312 558.167969 328.421875 558.519531 325.265625 C 558.871094 322.105469 559.140625 318.9375 559.320312 315.765625 C 559.503906 312.589844 559.597656 309.414062 559.605469 306.234375 C 559.617188 303.054688 559.539062 299.878906 559.375 296.703125 C 559.210938 293.53125 558.960938 290.363281 558.628906 287.199219 C 558.292969 284.039062 557.871094 280.890625 557.363281 277.75 C 556.859375 274.613281 556.265625 271.488281 555.589844 268.382812 C 554.914062 265.277344 554.15625 262.191406 553.3125 259.125 C 552.46875 256.0625 551.542969 253.019531 550.535156 250.007812 C 549.527344 246.992188 548.4375 244.007812 547.269531 241.050781 C 546.097656 238.09375 544.847656 235.171875 543.519531 232.285156 C 542.191406 229.398438 540.785156 226.546875 539.300781 223.734375 C 537.816406 220.925781 536.257812 218.15625 534.625 215.429688 C 532.992188 212.703125 531.285156 210.019531 529.503906 207.386719 C 527.726562 204.75 525.875 202.167969 523.957031 199.632812 C 522.035156 197.101562 520.050781 194.621094 517.996094 192.195312 C 515.941406 189.765625 513.820312 187.398438 511.640625 185.085938 C 509.457031 182.777344 507.210938 180.527344 504.90625 178.335938 C 502.601562 176.148438 500.238281 174.023438 497.820312 171.960938 C 495.398438 169.898438 492.925781 167.90625 490.398438 165.980469 C 487.867188 164.050781 485.289062 162.195312 482.660156 160.410156 C 480.03125 158.621094 477.355469 156.90625 474.632812 155.265625 C 471.910156 153.625 469.144531 152.058594 466.339844 150.566406 C 463.53125 149.074219 460.683594 147.660156 457.800781 146.324219 C 454.917969 144.988281 452 143.730469 449.046875 142.550781 C 446.09375 141.371094 443.113281 140.273438 440.097656 139.257812 C 437.085938 138.238281 434.050781 137.304688 430.988281 136.453125 C 427.925781 135.601562 424.839844 134.832031 421.738281 134.148438 C 418.632812 133.464844 415.511719 132.863281 412.375 132.347656 C 409.238281 131.832031 406.089844 131.402344 402.929688 131.058594 C 399.769531 130.714844 396.601562 130.457031 393.425781 130.285156 C 390.253906 130.113281 387.074219 130.027344 383.898438 130.027344 C 380.71875 130.027344 377.542969 130.113281 374.367188 130.285156 C 371.191406 130.457031 368.027344 130.714844 364.863281 131.058594 C 361.703125 131.402344 358.554688 131.832031 355.417969 132.347656 C 352.28125 132.863281 349.160156 133.464844 346.058594 134.148438 C 342.953125 134.832031 339.871094 135.601562 336.804688 136.453125 C 333.742188 137.304688 330.707031 138.238281 327.695312 139.257812 C 324.683594 140.273438 321.699219 141.371094 318.746094 142.550781 C 315.796875 143.730469 312.878906 144.988281 309.992188 146.324219 C 307.109375 147.660156 304.261719 149.074219 301.457031 150.566406 C 298.648438 152.058594 295.882812 153.625 293.160156 155.265625 C 290.4375 156.90625 287.761719 158.621094 285.132812 160.410156 C 282.503906 162.195312 279.925781 164.050781 277.398438 165.980469 C 274.867188 167.90625 272.394531 169.898438 269.972656 171.960938 C 267.554688 174.023438 265.191406 176.148438 262.886719 178.335938 C 260.582031 180.527344 258.335938 182.777344 256.15625 185.085938 C 253.972656 187.398438 251.851562 189.765625 249.800781 192.195312 C 247.746094 194.621094 245.757812 197.101562 243.839844 199.632812 C 241.917969 202.167969 240.070312 204.75 238.289062 207.386719 C 236.511719 210.019531 234.804688 212.703125 233.167969 215.429688 C 231.535156 218.15625 229.976562 220.925781 228.492188 223.734375 C 227.011719 226.546875 225.605469 229.398438 224.273438 232.285156 C 222.945312 235.171875 221.695312 238.09375 220.527344 241.050781 C 219.355469 244.007812 218.265625 246.992188 217.257812 250.007812 C 216.25 253.023438 215.324219 256.0625 214.480469 259.125 C 213.636719 262.191406 212.878906 265.277344 212.203125 268.382812 C 211.527344 271.488281 210.933594 274.613281 210.429688 277.75 C 209.921875 280.890625 209.5 284.039062 209.167969 287.199219 C 208.832031 290.363281 208.582031 293.53125 208.417969 296.703125 C 208.253906 299.878906 208.179688 303.054688 208.1875 306.234375 C 208.195312 309.414062 208.289062 312.589844 208.472656 315.765625 C 208.652344 318.9375 208.921875 322.105469 209.273438 325.265625 C 209.628906 328.421875 210.066406 331.570312 210.589844 334.707031 C 211.113281 337.839844 211.722656 340.960938 212.417969 344.0625 C 213.109375 347.164062 213.886719 350.246094 214.746094 353.308594 C 215.609375 356.367188 216.550781 359.402344 217.578125 362.410156 C 218.601562 365.421875 219.707031 368.398438 220.894531 371.347656 C 222.082031 374.296875 223.347656 377.210938 224.695312 380.09375 C 226.039062 382.972656 227.460938 385.8125 228.960938 388.617188 C 230.460938 391.421875 232.035156 394.179688 233.683594 396.898438 C 235.332031 399.617188 237.054688 402.289062 238.851562 404.910156 C 240.644531 407.535156 242.507812 410.109375 244.441406 412.632812 C 246.375 415.15625 248.378906 417.625 250.445312 420.039062 C 252.511719 422.453125 254.644531 424.808594 256.839844 427.109375 C 259.035156 429.40625 261.292969 431.644531 263.609375 433.820312 C 265.929688 435.996094 268.300781 438.109375 270.734375 440.15625 C 273.167969 442.203125 275.652344 444.183594 278.191406 446.097656 C 280.730469 448.007812 283.320312 449.851562 285.960938 451.621094 C 288.597656 453.394531 291.285156 455.09375 294.015625 456.71875 C 227.171875 478.535156 169.894531 524.613281 132.726562 588.894531 C 132.386719 589.449219 132.078125 590.015625 131.792969 590.601562 C 131.511719 591.1875 131.257812 591.785156 131.035156 592.394531 C 130.8125 593.007812 130.617188 593.628906 130.457031 594.257812 C 130.296875 594.886719 130.167969 595.523438 130.070312 596.164062 C 129.972656 596.808594 129.90625 597.453125 129.871094 598.105469 C 129.839844 598.753906 129.839844 599.402344 129.871094 600.050781 C 129.902344 600.703125 129.964844 601.347656 130.0625 601.992188 C 130.160156 602.632812 130.285156 603.269531 130.445312 603.902344 C 130.605469 604.53125 130.796875 605.152344 131.019531 605.761719 C 131.242188 606.375 131.492188 606.972656 131.773438 607.558594 C 132.054688 608.144531 132.367188 608.714844 132.707031 609.269531 C 133.042969 609.824219 133.410156 610.359375 133.800781 610.878906 C 134.195312 611.398438 134.609375 611.894531 135.054688 612.371094 C 135.496094 612.847656 135.960938 613.304688 136.445312 613.734375 C 136.933594 614.164062 137.441406 614.570312 137.96875 614.949219 C 138.496094 615.328125 139.042969 615.679688 139.605469 616.003906 C 140.167969 616.332031 140.746094 616.628906 141.339844 616.894531 C 141.933594 617.164062 142.535156 617.398438 143.152344 617.605469 C 143.769531 617.8125 144.394531 617.988281 145.027344 618.132812 C 145.660156 618.277344 146.300781 618.390625 146.945312 618.472656 C 147.589844 618.554688 148.238281 618.601562 148.890625 618.617188 C 149.539062 618.632812 150.1875 618.617188 150.835938 618.570312 C 151.484375 618.519531 152.128906 618.4375 152.769531 618.324219 C 153.410156 618.210938 154.042969 618.066406 154.667969 617.890625 C 155.292969 617.714844 155.910156 617.507812 156.515625 617.269531 C 157.121094 617.03125 157.710938 616.765625 158.289062 616.46875 C 158.867188 616.171875 159.429688 615.84375 159.976562 615.492188 C 160.523438 615.140625 161.046875 614.757812 161.554688 614.355469 C 162.0625 613.949219 162.550781 613.519531 163.015625 613.0625 C 163.480469 612.609375 163.921875 612.132812 164.339844 611.632812 C 164.757812 611.136719 165.148438 610.617188 165.515625 610.078125 C 165.878906 609.542969 166.21875 608.988281 166.527344 608.417969 C 212.503906 528.957031 293.773438 481.515625 383.898438 481.515625 C 474.023438 481.515625 555.289062 528.957031 601.265625 608.417969 C 601.578125 608.988281 601.914062 609.542969 602.28125 610.078125 C 602.644531 610.617188 603.039062 611.136719 603.453125 611.632812 C 603.871094 612.132812 604.3125 612.609375 604.777344 613.0625 C 605.242188 613.519531 605.730469 613.949219 606.238281 614.355469 C 606.746094 614.757812 607.273438 615.140625 607.820312 615.492188 C 608.363281 615.84375 608.925781 616.171875 609.503906 616.46875 C 610.082031 616.765625 610.675781 617.03125 611.28125 617.269531 C 611.886719 617.507812 612.5 617.714844 613.125 617.890625 C 613.75 618.066406 614.386719 618.210938 615.023438 618.324219 C 615.664062 618.4375 616.308594 618.519531 616.957031 618.566406 C 617.605469 618.617188 618.253906 618.632812 618.90625 618.617188 C 619.554688 618.601562 620.203125 618.554688 620.847656 618.472656 C 621.492188 618.390625 622.132812 618.277344 622.765625 618.132812 C 623.398438 617.988281 624.023438 617.8125 624.640625 617.605469 C 625.257812 617.398438 625.863281 617.160156 626.453125 616.894531 C 627.046875 616.628906 627.625 616.332031 628.1875 616.003906 C 628.75 615.679688 629.296875 615.328125 629.824219 614.949219 C 630.351562 614.570312 630.859375 614.164062 631.347656 613.734375 C 631.835938 613.304688 632.300781 612.847656 632.742188 612.371094 C 633.183594 611.894531 633.601562 611.398438 633.992188 610.878906 C 634.382812 610.359375 634.75 609.824219 635.089844 609.269531 C 635.425781 608.714844 635.738281 608.144531 636.019531 607.558594 C 636.300781 606.972656 636.550781 606.375 636.773438 605.761719 C 636.996094 605.152344 637.1875 604.53125 637.347656 603.902344 C 637.507812 603.269531 637.636719 602.632812 637.730469 601.992188 C 637.828125 601.347656 637.890625 600.703125 637.921875 600.050781 C 637.957031 599.402344 637.953125 598.753906 637.921875 598.105469 C 637.886719 597.453125 637.824219 596.808594 637.726562 596.167969 C 637.628906 595.523438 637.496094 594.886719 637.335938 594.257812 C 637.175781 593.628906 636.984375 593.007812 636.757812 592.394531 C 636.535156 591.785156 636.285156 591.1875 636 590.601562 C 635.71875 590.015625 635.40625 589.449219 635.066406 588.894531 Z M 247.234375 305.804688 C 247.234375 303.566406 247.289062 301.332031 247.398438 299.097656 C 247.507812 296.863281 247.671875 294.632812 247.890625 292.40625 C 248.109375 290.183594 248.382812 287.960938 248.710938 285.75 C 249.039062 283.539062 249.421875 281.335938 249.859375 279.140625 C 250.296875 276.949219 250.785156 274.765625 251.328125 272.597656 C 251.871094 270.425781 252.46875 268.273438 253.117188 266.132812 C 253.765625 263.992188 254.46875 261.867188 255.222656 259.761719 C 255.976562 257.65625 256.78125 255.570312 257.636719 253.503906 C 258.492188 251.4375 259.398438 249.394531 260.355469 247.371094 C 261.308594 245.351562 262.316406 243.351562 263.371094 241.378906 C 264.425781 239.40625 265.527344 237.460938 266.675781 235.542969 C 267.824219 233.625 269.023438 231.738281 270.265625 229.875 C 271.507812 228.015625 272.796875 226.1875 274.128906 224.390625 C 275.460938 222.597656 276.835938 220.832031 278.253906 219.105469 C 279.671875 217.375 281.132812 215.683594 282.636719 214.023438 C 284.136719 212.367188 285.679688 210.75 287.261719 209.167969 C 288.84375 207.585938 290.460938 206.042969 292.117188 204.542969 C 293.777344 203.039062 295.46875 201.578125 297.199219 200.160156 C 298.925781 198.742188 300.691406 197.367188 302.484375 196.035156 C 304.28125 194.703125 306.109375 193.414062 307.96875 192.171875 C 309.832031 190.929688 311.71875 189.734375 313.636719 188.582031 C 315.554688 187.433594 317.5 186.332031 319.472656 185.277344 C 321.445312 184.222656 323.445312 183.214844 325.464844 182.261719 C 327.488281 181.304688 329.53125 180.398438 331.597656 179.542969 C 333.664062 178.6875 335.75 177.882812 337.855469 177.128906 C 339.960938 176.375 342.085938 175.671875 344.226562 175.023438 C 346.367188 174.375 348.519531 173.777344 350.691406 173.234375 C 352.859375 172.691406 355.042969 172.203125 357.234375 171.765625 C 359.429688 171.328125 361.632812 170.945312 363.84375 170.617188 C 366.054688 170.289062 368.277344 170.015625 370.5 169.796875 C 372.726562 169.578125 374.957031 169.414062 377.191406 169.304688 C 379.425781 169.195312 381.660156 169.140625 383.898438 169.140625 C 386.132812 169.140625 388.367188 169.195312 390.601562 169.304688 C 392.835938 169.414062 395.066406 169.578125 397.292969 169.796875 C 399.519531 170.015625 401.738281 170.289062 403.949219 170.617188 C 406.164062 170.945312 408.363281 171.328125 410.558594 171.765625 C 412.753906 172.203125 414.933594 172.691406 417.105469 173.234375 C 419.273438 173.777344 421.429688 174.375 423.570312 175.023438 C 425.707031 175.671875 427.832031 176.375 429.9375 177.128906 C 432.042969 177.882812 434.128906 178.6875 436.195312 179.542969 C 438.261719 180.398438 440.304688 181.304688 442.328125 182.261719 C 444.351562 183.214844 446.347656 184.222656 448.320312 185.277344 C 450.292969 186.332031 452.238281 187.433594 454.15625 188.582031 C 456.074219 189.734375 457.964844 190.929688 459.824219 192.171875 C 461.683594 193.414062 463.511719 194.703125 465.308594 196.035156 C 467.105469 197.367188 468.867188 198.742188 470.597656 200.160156 C 472.324219 201.578125 474.019531 203.039062 475.675781 204.542969 C 477.332031 206.042969 478.953125 207.585938 480.53125 209.167969 C 482.113281 210.75 483.65625 212.367188 485.160156 214.023438 C 486.660156 215.683594 488.121094 217.375 489.539062 219.105469 C 490.957031 220.832031 492.335938 222.597656 493.667969 224.394531 C 495 226.1875 496.285156 228.015625 497.527344 229.875 C 498.773438 231.738281 499.96875 233.625 501.117188 235.542969 C 502.265625 237.460938 503.371094 239.40625 504.425781 241.378906 C 505.476562 243.351562 506.484375 245.351562 507.441406 247.371094 C 508.394531 249.394531 509.300781 251.4375 510.15625 253.503906 C 511.015625 255.570312 511.820312 257.65625 512.570312 259.761719 C 513.324219 261.867188 514.027344 263.992188 514.675781 266.132812 C 515.324219 268.273438 515.921875 270.425781 516.464844 272.597656 C 517.007812 274.765625 517.5 276.949219 517.933594 279.140625 C 518.371094 281.335938 518.753906 283.539062 519.082031 285.75 C 519.410156 287.960938 519.683594 290.183594 519.902344 292.40625 C 520.121094 294.632812 520.285156 296.863281 520.394531 299.097656 C 520.507812 301.332031 520.5625 303.566406 520.5625 305.804688 C 520.5625 308.039062 520.507812 310.273438 520.394531 312.507812 C 520.285156 314.742188 520.121094 316.972656 519.902344 319.199219 C 519.683594 321.425781 519.410156 323.644531 519.082031 325.855469 C 518.753906 328.070312 518.371094 330.269531 517.933594 332.464844 C 517.5 334.660156 517.007812 336.839844 516.464844 339.011719 C 515.921875 341.179688 515.324219 343.335938 514.675781 345.476562 C 514.027344 347.613281 513.324219 349.738281 512.570312 351.84375 C 511.820312 353.949219 511.015625 356.035156 510.15625 358.101562 C 509.300781 360.167969 508.394531 362.210938 507.441406 364.234375 C 506.484375 366.257812 505.476562 368.253906 504.425781 370.226562 C 503.371094 372.199219 502.265625 374.144531 501.117188 376.0625 C 499.96875 377.980469 498.773438 379.871094 497.527344 381.730469 C 496.285156 383.589844 495 385.417969 493.667969 387.214844 C 492.335938 389.011719 490.957031 390.773438 489.539062 392.503906 C 488.121094 394.230469 486.660156 395.925781 485.160156 397.582031 C 483.65625 399.238281 482.113281 400.859375 480.53125 402.4375 C 478.953125 404.019531 477.332031 405.5625 475.675781 407.066406 C 474.019531 408.566406 472.324219 410.027344 470.597656 411.445312 C 468.867188 412.863281 467.105469 414.242188 465.308594 415.574219 C 463.511719 416.90625 461.683594 418.191406 459.824219 419.433594 C 457.964844 420.679688 456.074219 421.875 454.15625 423.023438 C 452.238281 424.171875 450.292969 425.277344 448.320312 426.332031 C 446.347656 427.382812 444.351562 428.390625 442.328125 429.347656 C 440.304688 430.300781 438.261719 431.207031 436.195312 432.0625 C 434.128906 432.921875 432.042969 433.726562 429.9375 434.476562 C 427.832031 435.230469 425.707031 435.933594 423.570312 436.582031 C 421.429688 437.230469 419.273438 437.828125 417.105469 438.371094 C 414.933594 438.914062 412.753906 439.40625 410.558594 439.839844 C 408.363281 440.277344 406.164062 440.660156 403.949219 440.988281 C 401.738281 441.316406 399.519531 441.589844 397.292969 441.808594 C 395.066406 442.027344 392.835938 442.191406 390.601562 442.300781 C 388.367188 442.414062 386.132812 442.46875 383.898438 442.46875 C 381.660156 442.464844 379.425781 442.40625 377.195312 442.296875 C 374.960938 442.183594 372.730469 442.015625 370.507812 441.796875 C 368.28125 441.574219 366.0625 441.300781 363.851562 440.96875 C 361.640625 440.640625 359.4375 440.253906 357.246094 439.816406 C 355.050781 439.378906 352.871094 438.886719 350.703125 438.34375 C 348.535156 437.796875 346.382812 437.199219 344.242188 436.550781 C 342.101562 435.898438 339.980469 435.195312 337.875 434.441406 C 335.769531 433.6875 333.6875 432.882812 331.621094 432.023438 C 329.554688 431.167969 327.511719 430.261719 325.492188 429.304688 C 323.46875 428.347656 321.472656 427.34375 319.503906 426.289062 C 317.53125 425.230469 315.585938 424.128906 313.667969 422.980469 C 311.753906 421.828125 309.863281 420.632812 308.003906 419.390625 C 306.144531 418.148438 304.320312 416.859375 302.523438 415.527344 C 300.726562 414.195312 298.964844 412.820312 297.238281 411.402344 C 295.507812 409.984375 293.816406 408.523438 292.160156 407.019531 C 290.503906 405.519531 288.886719 403.976562 287.304688 402.398438 C 285.722656 400.816406 284.179688 399.195312 282.679688 397.539062 C 281.179688 395.882812 279.71875 394.191406 278.300781 392.460938 C 276.878906 390.734375 275.503906 388.972656 274.171875 387.175781 C 272.839844 385.382812 271.550781 383.554688 270.308594 381.695312 C 269.066406 379.835938 267.871094 377.949219 266.71875 376.03125 C 265.570312 374.113281 264.46875 372.167969 263.414062 370.199219 C 262.359375 368.226562 261.351562 366.230469 260.394531 364.207031 C 259.4375 362.1875 258.53125 360.144531 257.675781 358.078125 C 256.816406 356.015625 256.011719 353.929688 255.257812 351.824219 C 254.503906 349.71875 253.800781 347.597656 253.152344 345.457031 C 252.5 343.320312 251.902344 341.164062 251.355469 338.996094 C 250.8125 336.828125 250.320312 334.648438 249.882812 332.453125 C 249.445312 330.261719 249.0625 328.058594 248.730469 325.847656 C 248.402344 323.636719 248.125 321.417969 247.902344 319.195312 C 247.683594 316.96875 247.515625 314.738281 247.40625 312.507812 C 247.292969 310.273438 247.234375 308.039062 247.234375 305.804688 Z M 247.234375 305.804688 " fill-opacity="1" fill-rule="nonzero"/></svg>